<svg xmlns="http://www.w3.org/2000/svg" xml:space="preserve" width="960" height="960" viewBox="0 0 960 960">
  <path fill="#fff" d="M480 137.7a180 180 0 0 0-179.8 179.9A180 180 0 0 0 480 497.4a180 180 0 0 0 179.8-179.8A180 180 0 0 0 480 137.7Z"/>
  <path fill="#0e3c60" d="M480 145.2c-95 0-172.3 77.3-172.3 172.4 0 95 77.3 172.3 172.3 172.3 95 0 172.3-77.3 172.3-172.3 0-95-77.3-172.4-172.3-172.4m0 352.2a180 180 0 0 1-179.8-179.8A180 180 0 0 1 480 137.7a180 180 0 0 1 179.8 179.9A180 180 0 0 1 480 497.4"/>
  <path fill="none" d="M600.7 318a121 121 0 1 1-242.1.1 121 121 0 0 1 242 0z"/>
  <path fill="#0e3c60" d="M413.3 236.3v72.4h64.3v-72.4Zm67.9 0v72.4h64.7v-72.4Zm-48.3 13.5c.6.3 1.3.6 2 1.1a5 5 0 0 1 1.5 3l-.2-2.2c0-.6.5-1 1-1l.3.6c.2.4.7.7 1.1.9v.3c0 .2-.2.3-.3.3-.6.1-1.3.9-.7 1.3.6.5 1.8.3 2 1v2c-.2.2-1.1 0-1.3.2v2.5c0 .1.2.4 0 .4-.3 0-1.2-.2-1.4-.5l.3-.4c.3-.7.1-1.5 0-2.2a4.6 4.6 0 0 1-1.8.3c0 .5 0 1-.2 1.5l-.4 1.2-.1.1a3 3 0 0 1-.9-.4c.2-.3.5-.4.6-.7.5-.6 0-1.3-.4-1.8-1.2.3-2.4.6-3.6.7-1-.1-2-.6-3-1.1v-.1c.4-.5 1.2-.7 1.6-.8-.3-.3-1-.6-.8-1 .2-.5 1.1-1.2 2-1.2a10 10 0 0 0 2.8 1.8c.5.3 0-.5-.1-.8-.6-1.1-1.3-2.5-.8-3.8l.8-1.2zm23.5 0 .8 1.2c.5 1.3-.2 2.7-.8 3.8 0 .3-.7 1.1 0 .8.9-.5 1.9-1 2.6-1.8 1 0 1.9.7 2 1.2.2.4-.4.7-.7 1 .4.1 1.2.3 1.5.8.1 0 .1 0 0 0a7 7 0 0 1-2.9 1.2c-1.2 0-2.4-.4-3.7-.7-.3.5-.8 1.2-.4 1.8l.7.6v.1a3.1 3.1 0 0 1-1 .4l-.4-1.3c-.2-.4-.3-1-.2-1.5a4.4 4.4 0 0 1-1.8-.3c-.1.7-.4 1.5 0 2.2 0 .2.3.3.3.4-.2.3-1 .5-1.5.5-.1 0 0-.3 0-.4.2-.5 0-1 0-1.4 0-.3.2-1 0-1.1-.1-.2-1 0-1.1-.2-.3-.4-.2-1.2 0-2 0-.7 1.3-.5 1.9-1 .6-.4 0-1.2-.7-1.3-.1 0-.4 0-.3-.3v-.3c.4-.2.9-.5 1.1-1 .2 0 .1-.3.3-.5.5 0 1 .4 1 1l-.2 2.3a5 5 0 0 1 1.5-3c.7-.6 1.3-.9 2-1.2zm57.1.3c.9 0 1.6.7 1.6 1.5 0 .9-.7 1.6-1.5 1.6v2.4h17.8v.4h.1v.1h.1a.3.3 0 0 0 0 .1v.1l7.4 12.5h.3s-3.1 2.6-8.1 2.6-8.2-2.6-8.2-2.6h.4l7-12h-16.8l.7 38.3h4.6v1.2h2.6v.8h9.8v.8h-35.5v-.8h9.8v-.8h2.6v-1.2h4.5l.8-38.4h-16.8l7.1 12.1h.4s-3.1 2.6-8.2 2.6c-5 0-8.2-2.6-8.2-2.6h.4l7.3-12.5a.4.4 0 0 1 0-.1.4.4 0 0 1 .1-.1.4.4 0 0 1 0-.1.4.4 0 0 1 .1 0v-.4h17.8v-2.4c-.8 0-1.5-.7-1.5-1.6 0-.8.7-1.5 1.5-1.5zm-69.5.2h1.3v1.8h1.7v1.3h-1.7v1.4l3.8 2.9v.5H448v7h1.8v-3.5h3v3.6h2.2v2.9h-20.5v-3h2.2v-3.7h3v3.8h1.7v-7h-1.2v-.6l3.9-2.9v-1.4h-1.7V252h1.7zm51.5 8-6.1 10.5h6.1zm1 0v10.5h6.2zm34.2 0-6.2 10.5h6.2zm1 0v10.5h6zm-96.9 10.2h19.6v.6h-19.6zm2.3.8h15v19.3h-15zm22.2 19.4h.4c.9.2 1.4 1.3 1.7 2.2.3.9-.5 1.9-.2 2.8.5 1.3 2 1.9 2.8 3 .5.9.6 2 1.2 2.8.6.7 1.6.9 2.3 1.6a18 18 0 0 1 2.2 3.3h-22.2c.3-.8 1-2.8 1.6-3.9.7-1 2-1.7 2.6-2.8.5-.7.8-1.7 1.2-2.5.6-1 1.3-2 2-2.8.5-.6 1.2-1 1.7-1.5s.8-1.2 1.4-1.6c.4-.2.8-.5 1.3-.6zm-23.6.2h17.8v.7h-17.8zm-.5 1H454v.7h-18.8zm-2.1 0c.6 0 1 .6 1.6 1.1v-.2h20v.7H435a10 10 0 0 0 .5.7c.8.8 1.3 1.8 2 2.7 1 1.1 2.3 2.1 3.2 3.3 1 1.2 1.8 2.5 2.7 3.8l1.8 2.4h-24c.1-1.1.4-2.6.9-3.5.7-1.3 2-2 3-3 1.4-1.6 2.4-3.6 3.9-5 1.2-1.2 2.3-3 4-3zm-19.8 22.4v49.5c0 15.7 16.6 28.8 33.5 34 30.1 9.2 32.8 15.5 32.8 15.5s2.7-6.3 32.8-15.5c17-5.2 33.5-18.3 33.5-34v-49.5Zm71 12a.7.7 0 0 1 .2 0H495a.7.7 0 0 1 .3 0 .7.7 0 0 1 .2.3.7.7 0 0 1 .1.2.7.7 0 0 1 0 .2.7.7 0 0 1 0 .1l.3 8.1 3.4-.7a.7.7 0 0 1 .1 0 .7.7 0 0 1 .1-.1.7.7 0 0 1 .1 0 .7.7 0 0 1 .1 0 .7.7 0 0 1 .1 0 .7.7 0 0 1 .1.1.7.7 0 0 1 .1 0 .7.7 0 0 1 .1.2.7.7 0 0 1 .1.1.7.7 0 0 1 0 .2l13.5 39.6a.7.7 0 0 1-.1.7l-9.2 12.2v.1a.7.7 0 0 1-.3.2.7.7 0 0 1-.1 0 .7.7 0 0 1-.3.1l-8.3.9a.7.7 0 0 1-.8-.5l-2.8-9.4-10.6 7.9a.7.7 0 0 1-.1.1.7.7 0 0 1-.6.2h-.2l-9.6-1.4a.7.7 0 0 1-.7-.6 59 59 0 0 1-11.9.5.7.7 0 0 1-.3-.1c-4.2.3-8 .3-11-.1a.7.7 0 0 1-.6-.7l-.7-49.9a.7.7 0 0 1 0-.1.7.7 0 0 1 0-.2.7.7 0 0 1 .1-.1.7.7 0 0 1 .2-.3.7.7 0 0 1 .1 0 .7.7 0 0 1 .2 0l18-4.2a.7.7 0 0 1 .1 0l5.6.3 2.8-.9a.7.7 0 0 1 .1 0 .7.7 0 0 1 .1 0h.5l11-3zm.2 1.4-10.3 2.9 5 .3 10.9-3.2h-5.6zm9.7.3-14 4.2.1 8.3a.7.7 0 0 1 .1 0 .7.7 0 0 1 .1 0 .7.7 0 0 1 .2-.1h.1l9.4-4a.7.7 0 0 1 .1 0l4-.9V326zm-30 3.4-13.5 3 3.7.4a.7.7 0 0 1 0-.1.7.7 0 0 1 .3-.3.7.7 0 0 1 .1 0l10.5-3h-1.1zm5.2.3-9.9 2.8 8.8.4 1.2-.5v-2.7zm1.4 0 .7 52.8 8.4 1.1-1.2-53.3zm-23.8 3.9V345l8.1.4-.7-11.3-7.4-.6zm8.8.2.7 11.6h11.7l-.5-11.1zm13.7.2h-.3l.4 9.4-.1-9.4zm29.6 0-9.4 4.2 14.4 45.5 8.1-11zm-6.3 1.3-2 .4h-.2l-4 1.7 2-.2 4.2-2zm-4.5 3.3-6.5 1 14 45.7 7-.7zm-8 .9 1 43.5 10-7.5zm-33.2 7v5.4l8.5.5-.4-5.4-8.1-.4zm9.5.3.4 5.3 11.5.1-.2-5.4h-11.7zm-9.4 6.5.3 28.7c2.8.3 6.2.3 10 0l-1.9-28.2-8.4-.5zm9.9.3 1.8 28.5c3 .2 6.7.1 11-.5l-1.3-28h-11.5z"/>
  <path fill="#0e3c60" d="M480 155.4a162.2 162.2 0 1 0 0 324.3 162.2 162.2 0 0 0 0-324.3zm-2.7 7.4.3 7.2h-.7v-.6c-.1-1.3-.4-2.2-1-2.9-.4-.6-1-1-2-1.2-.8-.2-1.9-.2-3.3-.1l.3 5.2 2.3-.2-.2-3.4h.8l.4 8h-.8v-.9c0-.9-.3-1.6-.7-2-.3-.6-1-.8-1.8-.8l.6 12.1c.2.7.4 1.1.6 1.3.3.2.8.3 1.4.2h.5l.7-.1v.8l-6.9.3v-.8h2L469 167c0-.7-.2-1.1-.6-1.4-.3-.2-1-.3-1.8-.2v-.8l10-.5v-1.3zm7 7.6.6.5-1 1.3-.1.8a3.6 3.6 0 0 1 3.2-1.6c.7 0 1.3.2 1.7.5v-1.3h.9l-.3 6.2h-.8v-2.3c0-.6-.2-1.1-.5-1.6-.3-.4-.7-.6-1.4-.6-1 0-2 .6-2.9 2l-.3 8.7c0 1 .5 1.6 1.7 1.6v.8l-4.9-.2v-.8h1.6l.4-10.5-1 1-.6-.6zm7.7.4h.8l-.3 2.3a10.8 10.8 0 0 1 .7-.4l.4-.3 1.2-.5c.6-.2 1.2-.2 2 0a4 4 0 0 1 2 .7c.6.5 1 1 1.4 1.6l.3 1.8v.4l-1 8.4c-.1.5 0 .8.4 1l1.5.3-.1.7-3.3-.3v-.5c-1.2.4-2.5.6-3.7.5a4.8 4.8 0 0 1-2.3-1 4.8 4.8 0 0 1-1.4-1.8 4.5 4.5 0 0 1-.3-2.3c.1-.8.4-1.6 1-2.4.4-.7 1.2-1.2 2.2-1.6 1-.4 2-.5 3.4-.3l1.9.4a3.8 3.8 0 0 0 .1-.8 4.4 4.4 0 0 0-1.1-3.5c-.4-.3-.9-.6-1.4-.6-.7-.1-1.4 0-2 .5-.6.4-1.1 1-1.6 1.7-.4.8-.7 1.5-.8 2.2l-.7-.1zm16.3 2.3.5.3-1 1-.2.9a21 21 0 0 1 2-.8c.4-.2 1-.2 1.6 0 .5 0 1 .3 1.6.7.5.4 1 1 1.2 1.6.3.8.3 1.7 0 2.7l-1.6 7.9c-.1.4 0 .7 0 .8.3.2.7.4 1.5.5l-.1.8-4.8-1 .1-.8 1.6.3 1.8-8.3v-2.2c-.1-.6-.4-1-.7-1.5a2.6 2.6 0 0 0-3.4-.2c-.8.6-1.2 1.5-1.5 2.7l-1.5 6.8c-.1.6 0 1 .2 1.3.3.3.8.5 1.5.7l-.2.7-4.7-1 .1-.8 1.3.3 2.3-10.6-1.3 1-.4-.3zm-88.4 1.2 3.5 7.8-.7.3-.2-.5c-.6-1.3-1.3-2.5-2.2-3.6-1-1-1.9-1.4-2.8-1-.3.1-.6.4-1 .8-.4.5-.6 1-.7 1.5 0 .6 0 1.1.2 1.6.3.7 1 1.3 2 1.7a45 45 0 0 0 5.5 1 17.3 17.3 0 0 1 2.7.5c.8.2 1.6.5 2.4 1 .7.6 1.3 1.3 1.7 2.3a6.3 6.3 0 0 1 .5 1.6 7 7 0 0 1-.2 3.4 7.8 7.8 0 0 1-4.4 4.6c-1.3.6-2.6.9-4.1 1-1.5 0-2.8-.4-4-1-1.2-.6-2-1.6-2.6-2.8a7 7 0 0 1-.7-3.2c.4-2.4 1.4-4 3.2-4.8a4.4 4.4 0 0 1 2.3-.4c.7 0 1.5.3 2.1.6.7.4 1.1.9 1.3 1.4.3.5.3 1.1 0 1.8a4 4 0 0 1-1.7 1.7l-.3-.8c.7-.7.9-1.5.5-2.3a2 2 0 0 0-1-1 3 3 0 0 0-1.4-.4 3.1 3.1 0 0 0-1.5.3 3 3 0 0 0-1.7 1.7c-.5 1.5-.5 2.9.1 4.2a6 6 0 0 0 2.1 2.5c1 .7 2.1 1 3.3 1.2 1.2.2 2.3 0 3.4-.5a3.9 3.9 0 0 0 .5-.2l.6-.3c1.3-1 2.2-2.1 2.5-3.5.3-1.5.2-2.8-.3-4a5.6 5.6 0 0 0-1.4-1.8 3 3 0 0 0-1.7-.8l-1.9-.2-1.3-.2-1-.1-2.8-.5c-.9-.3-1.6-.6-2.1-1-.6-.4-1-1-1.4-1.7l-.5-1.8c0-.7.3-1.5.8-2.4.6-.8 1.3-1.5 2.2-1.9.7-.3 1.4-.4 2-.3l-.5-1.2zm25.8 0 .5.2-.4 1.4.1.8 1.5-1.6 1.4-.7h1.8c.7.2 1.3.5 1.8 1 .6.6 1 1.4 1.2 2.5l1.7 7.8c.1.5.2.7.4.8l1.6-.2.1.8-4.8 1-.1-.7 1.5-.4-1.8-8.3c-.2-.8-.5-1.5-.9-2-.3-.5-.8-.8-1.3-1-.5-.3-1-.3-1.4-.2-.8.2-1.3.6-1.7 1.4-.4.9-.5 1.8-.3 3l1.5 6.8c.1.6.4 1 .7 1.1.4.2 1 .2 1.6 0l.2.8-4.8 1-.1-.7 1.2-.3-2.3-10.6-.7 1.5-.5-.2zm91 .9h.2l.3.2c.9.4 1.2.9 1 1.5-.2.5-.5.8-.9.9h-1.1c-.4-.1-.7-.4-.9-.8v-1.2a1 1 0 0 1 .6-.6h.9zm-101 2.6h1c.8.3 1.5.6 2 1 .5.5.9 1 1 1.5l.1.3 2.6 8.2c.2.4.4.6.8.6l1.5-.3.2.7-3.1 1-.2-.4c-1 1-2 1.6-3.2 2a4.7 4.7 0 0 1-2.4.1c-.8-.2-1.5-.6-2-1.2a4.5 4.5 0 0 1-1.3-1.9c-.3-.8-.3-1.6-.1-2.5.1-.8.6-1.6 1.4-2.4.6-.8 1.6-1.3 2.9-1.7l1.8-.4a4.3 4.3 0 0 0-1-2.5c-.5-.5-1-.8-1.6-1-.5-.2-1-.2-1.5 0-.7.2-1.2.6-1.6 1.3a5.4 5.4 0 0 0-.5 4.5l-.8.2-1.9-5.9.7-.2.7 2.2a21 21 0 0 1 .3-.4l.2-.3.2-.4 1-1c.4-.4 1-.7 1.7-.9a4.4 4.4 0 0 1 1.1-.2zm59.8 0-1.5.3c-.7.2-1.2.6-1.6 1.2-.5.5-.8 1.2-.9 2 0 1.2.2 2.2.9 3 .6.8 1.4 1.2 2.4 1.3a5 5 0 0 0 3.4-.9l.6-5c-.5-1-1.5-1.6-2.9-1.8a3.8 3.8 0 0 0-.4 0zm28.8.5a8 8 0 0 1 2 .3c.7.3 1.6.7 2.5 1.4l.4-1.3.7.3-2.3 7.3-.8-.2 1.5-4.5c-1-1.1-2-1.9-3.1-2.2-1-.4-2.1-.4-3.2 0-1.1.3-2 1-2.8 1.7-.8.8-1.3 1.6-1.6 2.5a5 5 0 0 0 0 3 7.3 7.3 0 0 0 4.4 4.4 6 6 0 0 0 5-.5l.4.6a7 7 0 0 1-3.2 1.3 6.9 6.9 0 0 1-3.2-.3 7 7 0 0 1-2.9-1.8 6.8 6.8 0 0 1-1.8-3 6 6 0 0 1 0-3.5.3.3 0 0 1 .2 0 .3.3 0 0 0 0-.2 7.7 7.7 0 0 1 2.2-3.5c1-.8 2.2-1.4 3.6-1.7a7.8 7.8 0 0 1 2-.1zm12 2.6.3.7-1.1.7L531 193c-.2.5-.2.8 0 1 0 .3.4.7.9 1l-.3.7-4.3-1.7.3-.7 1.4.6 4.3-10.6-1.8 1v-.8zm-98.5 2.8c-.5 0-1 0-1.5.2s-1 .5-1.6 1c-.5.5-.8 1-1 1.8-.2.6-.2 1.4 0 2.2a4 4 0 0 0 2 2.4c1 .4 1.9.4 2.8.1a5 5 0 0 0 2.7-2.2l-1.6-4.9c-.5-.4-1.1-.6-1.8-.6zm105.4 1.7c.4 0 1 .2 1.5.4a7 7 0 0 1 2 1.6l.5-1.1.7.3-2.4 5-.7-.3c.5-1 .8-2 .8-2.9 0-.8-.4-1.4-1.4-1.9-1.4-.7-2.4-.3-3 1-.3.6-.3 1 0 1.4l2 2.3c1.1 1.1 1.8 2.1 2.2 3 .3.9.2 1.8-.3 2.8a4 4 0 0 1-2 2c-.8.3-1.7.5-2.8.4a8 8 0 0 1-5-2.4c-.7-.6-1.1-1.4-1.3-2.2-.2-.8-.1-1.7.3-2.5.4-1 1-1.5 2-1.9.9-.3 1.9-.2 3 .3a2.4 2.4 0 0 1 1.3 3.2l-.1.2c-.2.4-.5.6-.9.8h-1c-.3-.1-.4-.4-.2-.8l.2-.3.1-.2.1-.2c.2-.4.2-.7 0-1.1 0-.4-.4-.6-.8-.8-.8-.4-1.6-.4-2.3 0a1.6 1.6 0 0 0-.6.7 3 3 0 0 0 0 2c0 .8.4 1.5 1 2.2a5.3 5.3 0 0 0 1.9 1.7c1 .5 2 .7 3.1.6 1 0 1.8-.7 2.3-1.7v-.2c.6-1 .6-1.8.2-2.4a12 12 0 0 0-2-2.5c-1-.8-1.6-1.7-2-2.4-.4-.8-.3-1.6.1-2.6.4-.7 1-1.2 2-1.4a3.6 3.6 0 0 1 1.5-.1zM394.9 187h.7v1.4l11 15.6 1 1c.4.2.7.3 1 .2.3 0 .6-.2 1-.5l.4.6-2.9 2-1-1.4a5.7 5.7 0 0 1-1 2.6 7 7 0 0 1-5.1 3.3c-1.3.2-2.5 0-3.6-.5a6.3 6.3 0 0 1-3-2.3 7.4 7.4 0 0 1-.4-7.8 8.2 8.2 0 0 1 2.6-3c1.4-1 2.8-1.4 4.3-1.1l-4.5-6.4-.2 2-.8-.3zm158.7 5.1c1.3 0 2.6.5 3.8 1.2.7.4 1.4 1 2.2 1.9l.7-1.1.6.4-4 6.6-.7-.4 2.5-4a6.8 6.8 0 0 0-2.5-3c-1-.5-2-.8-3.1-.7-1.2.1-2.2.5-3.1 1-1 .6-1.7 1.3-2.2 2.1a5 5 0 0 0-.6 3c0 1.1.4 2.2 1 3 .7 1 1.4 1.8 2.3 2.3a6 6 0 0 0 4.9.6l.1.7a7 7 0 0 1-3.3.5 6.9 6.9 0 0 1-3-1 7 7 0 0 1-2.4-2.5c-.7-1-1-2.1-1-3.4a6 6 0 0 1 .8-3.3l.2-.2a7.6 7.6 0 0 1 3-2.8c1.1-.6 2.4-1 3.8-.9zm-73.6.1a125.4 125.4 0 1 1 0 250.8 125.4 125.4 0 0 1 0-250.8zm-80.9 6.3a5 5 0 0 0-.7.1c-1 .2-1.9.5-2.7 1.1a6.3 6.3 0 0 0-1.9 2.1c-.4.9-.7 1.8-.7 2.8 0 1 .4 2 1 2.9a.3.3 0 0 0 .2 0v.2l1.3 1.3c.4.3.8.6 1.4.8 1 .5 2 .7 3 .7a5.3 5.3 0 0 0 2.8-1 6 6 0 0 0 1.6-2c.5-.6.8-1.5 1-2.6l-4.2-6a5 5 0 0 0-2-.4zm165.5 1.4a7.8 7.8 0 0 1 2 .2 8 8 0 0 1 3.2 1.4 7 7 0 0 1 2.6 5.8c0 1.2-.6 2.5-1.5 3.7l-.2.3c-.8 1-1.7 1.6-2.6 2a8 8 0 0 1-3 .8 9.1 9.1 0 0 1-2.8-.3 7 7 0 0 1-2.3-1.2 1.8 1.8 0 0 1-.3-.3 2.4 2.4 0 0 0-.3-.3 6.8 6.8 0 0 1-.5-9.4c1-1.2 2.2-2 3.6-2.4a8.7 8.7 0 0 1 2-.3zm.5 1a6.6 6.6 0 0 0-5 2.3c-.8 1.1-1.2 2.3-1.2 3.5 0 1 .1 2 .5 3 .5.9 1 1.6 1.8 2.1a.4.4 0 0 1 0 .2.4.4 0 0 0 .2.1c1 .7 1.9 1 3 1 1 0 2-.1 2.9-.6 1-.5 1.7-1 2.2-1.7.5-.7.9-1.6 1-2.7.3-1 .2-2.1-.2-3.3-.4-1-1-2-2-2.7-1-.8-2.1-1.3-3.2-1.3zm-179.5 6 1 .1c.7.2 1.2.6 1.6 1l.2.2 5.6 6.4c.3.3.7.4 1 .3l1.2-.9.5.6-2.4 2.2-.4-.4a7.8 7.8 0 0 1-2 3.1 4.7 4.7 0 0 1-2.3 1.1c-.8.1-1.6 0-2.3-.2a4.5 4.5 0 0 1-2-1.3c-.5-.6-.8-1.4-1-2.3-.2-.8-.2-1.7.2-2.7.4-1 1-1.9 2-2.8l1.6-1.1a4.1 4.1 0 0 0-.5-.7c-.4-.4-1-.8-1.5-1-.6-.3-1.2-.4-1.8-.4-.6 0-1 .2-1.4.6-.6.4-.9 1-1 1.8-.1.7 0 1.5.2 2.4.3.8.7 1.4 1.1 2l-.5.5-4.1-4.7.5-.4 1.6 1.7a15.7 15.7 0 0 1 .2-1.3c0-.4.2-.8.4-1.3.3-.5.7-1 1.3-1.5a4.1 4.1 0 0 1 3-1zm-16.3 1.6.3 1.3 14.1 12.8c.5.5 1 .8 1.3.9h1l.8-.8.5.5-2.4 2.6-1.3-1.1a5.7 5.7 0 0 1-.3 2.7 7 7 0 0 1-4.4 4.3c-1.2.4-2.4.5-3.6.3a6.3 6.3 0 0 1-3.4-1.6c-1.1-1-1.8-2.2-2.1-3.6a7.5 7.5 0 0 1 0-4c.4-1.3 1-2.4 1.9-3.4 1.1-1.3 2.4-2 4-2l-5.8-5.3.2 2-.9-.1-.6-5.4h.7zm19.6 3c-.8 0-1.6.4-2.4 1.1-.5.4-.8 1-1.1 1.6-.3.6-.4 1.3-.2 2 0 .7.4 1.3 1 2a4 4 0 0 0 2.7 1.4c1 0 1.9-.3 2.6-1a5 5 0 0 0 1.6-3.1l-3.4-3.8a2.8 2.8 0 0 0-.8-.2zm195 6a7.2 7.2 0 0 1 2 .5c1.3.5 2.3 1.3 3.2 2.2a5.6 5.6 0 0 1 1.6 4.2l5.8-5.2h-2l.2-.8h5.5v.6l-1.4.2-14.2 12.7c-.5.4-.8.8-1 1.1v1c0 .2.3.5.6 1l-.5.4-2.4-2.6 1.3-1.2a5.7 5.7 0 0 1-2.6-.7 7 7 0 0 1-4-4.8 6.7 6.7 0 0 1 .1-3.6 6.8 6.8 0 0 1 5.7-5 7.8 7.8 0 0 1 2.1 0zm-.7 1h-.7c-1 .2-2 .7-2.8 1.4a.4.4 0 0 0 0 .1l-.1.1-1.2 1.4a6.1 6.1 0 0 0-.7 1.5 6 6 0 0 0-.3 3 5.3 5.3 0 0 0 1.3 2.7 6 6 0 0 0 2 1.4c.8.4 1.8.6 2.8.7l5.5-4.9a5 5 0 0 0 0-2.8c-.3-1-.7-1.8-1.4-2.5a6.3 6.3 0 0 0-2.3-1.7 5 5 0 0 0-2-.4zm-207 .3a5 5 0 0 0-1.7.4c-1 .4-1.7 1-2.4 1.6a6.3 6.3 0 0 0-1.4 2.5c-.2 1-.3 1.9 0 2.9.2 1 .8 1.8 1.6 2.6a.2.2 0 0 0 .1 0h.1c.5.5 1 .8 1.5 1 .5.3 1 .5 1.6.6a6 6 0 0 0 3 0 5.4 5.4 0 0 0 2.5-1.6 6 6 0 0 0 1.3-2.2c.2-.8.3-1.7.3-2.8l-5.4-4.9h-1zm-17.5 5.6c.3 0 .6 0 .9.2.4.3.6.6.6 1 0 .5-.1.8-.3 1.1-.3.4-.6.6-1 .6-.4.1-.8 0-1.2-.3a1 1 0 0 1-.4-.7c0-.3 0-.6.2-.8a.4.4 0 0 1 .1-.2.8.8 0 0 0 .2-.1c.3-.4.6-.7 1-.8zm5 3 .3 1.2 9.2 7c.4.3.7.4 1 .4.3 0 .7-.3 1.2-.7l.6.5-2.8 3.7-.6-.5 1-1.2-9.1-7 .4 2-.7-.2-1.3-5.2zm230.6 3.2c1.3.1 2.5.5 3.5 1.1 1 .7 1.9 1.5 2.5 2.4a7.2 7.2 0 0 1 1.2 2.8 6.7 6.7 0 0 1 0 2.8c-.2.9-.6 1.6-1 2.2l-7.3-10.4a7 7 0 0 0-2.4 1c-1 .6-1.6 1.5-2.1 2.6a7 7 0 0 0-.7 3.3c0 1.1.4 2 1 2.9v.1l.2.1c.9 1 2 1.8 3.2 2.3 1.3.5 2.6.6 4 .3l.2.8c-1.8.4-3.3.4-4.7-.1a9.2 9.2 0 0 1-3.8-3.1l-.3-.4a7 7 0 0 1-.7-6.6c.5-1.1 1.3-2 2.3-2.8a4.6 4.6 0 0 1 .5-.3 3.9 3.9 0 0 0 .6-.3c1.2-.7 2.5-.9 3.8-.7zm.2 1 5.3 7.6v-2.6l-.2-.5a25.1 25.1 0 0 0-.2-.6 13.2 13.2 0 0 0-.2-.6l-.2-.5a6 6 0 0 0-4.5-2.8zm-235.7 1.8 4.7 3.1-.4.7c-1-.7-2-1.1-2.7-1.3-.8 0-1.5.3-2.1 1.2-.9 1.3-.7 2.3.6 3.2.5.3 1 .3 1.4 0l2.5-1.7c1.2-.9 2.3-1.5 3.2-1.7 1-.2 1.9 0 2.8.6a4 4 0 0 1 1.6 2.2c.3.9.4 1.9.2 2.9a8 8 0 0 1-3 4.8 5.5 5.5 0 0 1-2.5 1c-.8 0-1.6-.2-2.4-.7a3.4 3.4 0 0 1-1.6-2.2c-.2-1 0-2 .7-3 .5-.7 1-1 1.7-1.2.6 0 1.2 0 1.6.3l.2.2c.3.2.6.5.7 1l-.1 1c-.2.2-.5.3-.9 0a1 1 0 0 1-.2-.2 1.1 1.1 0 0 0-.2-.2h-.2c-.3-.3-.7-.4-1.1-.3-.4.1-.7.4-1 .8-.4.7-.5 1.5-.1 2.2.1.3.3.6.6.7a3 3 0 0 0 1.9.4c.8 0 1.6-.3 2.4-.7a5.3 5.3 0 0 0 1.8-1.7c.7-1 1-2 1-3 .1-1-.4-2-1.3-2.6h-.2c-1-.7-1.7-.8-2.4-.5-.7.2-1.6.8-2.7 1.7-1 .8-1.9 1.4-2.7 1.7-.8.3-1.6 0-2.5-.5-.7-.5-1-1.2-1.2-2.2a4 4 0 0 1 .8-2.8 7 7 0 0 1 1.8-1.8l-1.1-.7zm-5.7 9.3 5.4 3-.4.7-2-1c-.6-.3-1-.4-1.6-.2-.5 0-.9.3-1.2 1-.5.8-.3 2 .5 3.4l7.6 4.2c1 .5 1.7.2 2.2-.8l.7.3-2.3 4.3-.7-.4.7-1.3-9.2-5.1.4 1.4-.7.2-1.9-5.1.7-.2.6 1.5.7.3a3.6 3.6 0 0 1 0-3.5c.4-.7.8-1.1 1.3-1.4l-1.2-.6zm260.1 8.7c2 .1 3.8.8 5.4 2 1.7 1.3 3 3 4 5.4l.3.8c.5 1.5.7 3 .6 4.4a9.4 9.4 0 0 1-1.2 4 12.4 12.4 0 0 1-2.6 3.2 13.3 13.3 0 0 1-3.5 2.2 12.7 12.7 0 0 1-4 1 10.5 10.5 0 0 1-7.5-2.8c.2 3.4.5 6.6.9 9.5a92.1 92.1 0 0 0 1.5 8.5 80.4 80.4 0 0 0 2.2 7.8l-1.5-3c-.9-1.6-1.6-3.1-2.2-4.5-.7-1.8-1.2-3.4-1.3-4.7a231.7 231.7 0 0 1-.4-9.5 37 37 0 0 0 0-1.7 199.7 199.7 0 0 1 0-1.6v-1.5a15.6 15.6 0 0 1-2.7-4.3 10 10 0 0 1 .2-8.8 12.2 12.2 0 0 1 11.8-6.5zm-.2 1.6a11 11 0 0 0-4.2.9 12.2 12.2 0 0 0-3.7 2.3 10.7 10.7 0 0 0-2.5 3.5 7.4 7.4 0 0 0-.7 3.8c.7.2 1.3 1 1.8 2.4.6 1.4.9 2.8.9 4a7 7 0 0 0 4.6 2.7c1.9.3 3.7 0 5.7-.7 1.2-.6 2.4-1.3 3.5-2.2a12.5 12.5 0 0 0 2.6-3 9.2 9.2 0 0 0 .5-8c-.8-1.8-2-3.2-3.3-4.2-1.5-1-3-1.4-4.6-1.5a11 11 0 0 0-.6 0zm-262 2.1a4.4 4.4 0 0 1 1.2 0l-5 11.6a7 7 0 0 0 2 1.6c1 .4 2.2.6 3.4.4a7 7 0 0 0 3.1-1.2c1-.6 1.6-1.4 2-2.3a.5.5 0 0 0 0-.1.6.6 0 0 1 0-.2c.5-1.3.6-2.6.3-4a6.5 6.5 0 0 0-1.8-3.4l.6-.7c1.3 1.3 2 2.6 2.3 4 .3 1.5 0 3.1-.6 5l-.2.4a7 7 0 0 1-5.3 4c-1.2.2-2.3 0-3.5-.4a4.5 4.5 0 0 1-.6-.3 3.6 3.6 0 0 0-.5-.3c-1.2-.7-2-1.7-2.6-2.9a8.6 8.6 0 0 1-.2-7c.4-1 1-1.8 1.8-2.5a6.7 6.7 0 0 1 2.4-1.4l1.2-.3zm-.8 2c-1.7.7-3 1.4-3.6 3.3-.8 2-.9 3.6-.1 5.2zM602 265c0 .7.1 1.4.4 2.2.4.8.7 1.4 1.2 1.8l-.6-2.2-.2-.6-.8-1.2zm-260 3.8.8.2-.3 1 11.4 8.4-.2.7-12.3.5-1.5.3c-.4.3-.7.7-.8 1.2l-.8-.3 1.3-4.1.7.2-.3 1 11.2-.3-7.3-5-1-.5c-.6-.2-1.1.1-1.4 1l-.7-.2 1.3-4.1zm277.5 6.1.9 3.5-8.8 2.2c-1 .3-2 .8-2.6 1.3-.6.7-.9 1.3-.8 2v.2a.6.6 0 0 0 0 .2c.2.6.6 1 1.3 1.5.7.4 1.5.5 2.4.3l7.3-1.8c.8-.2 1.3-.5 1.4-.8.1-.3 0-.8-.1-1.4l.8-.2.9 3.5-10.5 2.7c-.9.2-1.4.5-1.6.8-.2.3-.2.8 0 1.4l-.5.2-.9-3.5 1-.3c-1.1-.3-1.9-1.2-2.3-2.6v-.5c-.4-1.1-.2-2 .5-2.8.7-.7 1.6-1.2 2.6-1.5l6.8-1.7c.6-.2 1.1-.4 1.4-.8.2-.3.2-.9 0-1.7l.8-.2zm-287.6 7.6c.5 0 .9.3 1 .7.2.4.3.7.2 1.1 0 .4-.3.7-.6 1-.4.2-.8.3-1.2.2a1 1 0 0 1-.7-.6 1 1 0 0 1-.2-.8 1 1 0 0 1 .1-.1.7.7 0 0 0 .1-.3c.2-1 .7-1.4 1.3-1.2zm5 .8.7 1 11.3 2.6 1.1-.1c.3-.2.5-.5.8-1h.7l-1 4.6-.7-.2.3-1.5-11-2.5 1.1 1.6h-.7l-3.3-4.1.6-.4zm292.5 5.4c.3-.1.6 0 .8.2.3.1.4.3.5.6v.5c.2 1 0 1.5-.8 1.7-.5 0-.8 0-1.2-.3-.3-.3-.5-.6-.6-1 0-.3 0-.7.3-1 .2-.4.5-.7 1-.7zm-8.5 1 4.7 2.5-.5.6-1.1-.6-11.4 2c-.5.2-.8.3-1 .6l-.3 1.3-.7.1-.8-4.6h.7l.3 1.4 11.2-2-1.8-1 .7-.4zm-271.5 1.7.7.2-.7 4.8-.7-.1.2-1.6-8.4-1.3c-.9-.1-1.6 0-2.2.1-.6.2-1 .5-1.4.9-.4.3-.6.7-.7 1.2-.1.8.1 1.5.7 2.2.6.6 1.5 1 2.7 1.2l6.9 1.1c.6.1 1 0 1.3-.3.2-.3.4-.8.5-1.5l.8.2-.8 4.8-.7-.2.2-1.2L337 300l1.1 1.2-.3.5-3.8-4 .3-.4 1.1 1h.8l-.9-1.8c-.2-.5-.2-1-.1-1.7 0-.5.3-1 .6-1.6.4-.6 1-1 1.6-1.3.8-.4 1.7-.4 2.7-.3l8 1.2c.4.1.7 0 .8 0l.4-1.6zm275.3 4.8.2 1.5 4.9-.6 1.7 1.1v.3l-6.5.7.4 2.8-1 .1-.4-2.7-7.7.8c-2.8.4-4.3 1.3-4.3 2.9.2 1.4 1 2.5 2.4 3.1l-.2.5h-.1c-.3.1-.6 0-1.1-.2a3 3 0 0 1-1.2-.9c-.4-.4-.7-1-.8-2-.1-1 .2-2.2 1-3.1.7-1 1.7-1.5 3.1-1.6l8.7-1-.2-1.6 1-.1zM327 304h.8v1.6l17.2.8a3 3 0 0 1 2 .8c.6.5 1 1.2 1.2 1.9a6 6 0 0 1-.9 5.8c-.7 1-1.7 1.4-3 1.5l-15.3-.7c-.7 0-1.1.1-1.4.4-.3.4-.4 1-.5 1.8h-.7l.2-5.7h.8v1.6l15.2.7c1 0 2 0 2.7-.4.8-.3 1.4-.8 1.8-1.3.4-.6.6-1.2.7-1.8 0-.9-.4-1.7-1.2-2.5a5 5 0 0 0-3.3-1.2l-14-.7c-.7 0-1 .1-1.3.4-.3.2-.4.8-.4 1.6h-.8zm293.5 3c1.9 0 3.5.6 5 1.6 1.3 1 2.4 2.3 3 3.8.7 1.4 1 2.8 1.1 4 0 1.1-.3 2.3-.8 3.5a8.8 8.8 0 0 1-2.7 3.3 7.7 7.7 0 0 1-4.6 1.4h-.5a8.8 8.8 0 0 1-6.7-3.2c-.8-.9-1.4-1.9-1.8-3a8.5 8.5 0 0 1-.6-3v-.4a3.6 3.6 0 0 0 0-.6c.4-2.1 1.2-4 2.7-5.3a8.2 8.2 0 0 1 5.9-2.2zm.3 1.5c-1.6.2-3 .7-4.1 1.5-1.1.8-2 1.7-2.5 2.7a7.7 7.7 0 0 0-.7 3.3v.4c0 1.4.3 2.6 1.1 3.6s1.7 1.8 2.8 2.3c1.2.5 2.3.7 3.3.7s2.2-.3 3.3-1a7.8 7.8 0 0 0 3-2.6 7 7 0 0 0 1-4c0-1.5-.4-2.8-1.2-3.9-.9-1-1.9-1.8-3-2.3-1-.5-2-.7-3-.7zm-4.5 32h1.5a7 7 0 0 1 4.6 3.3 7 7 0 0 1 1 5.5 7 7 0 0 1-3.3 4.5 7 7 0 0 1-5.4 1 7 7 0 0 1-4.6-3.2 7 7 0 0 1-1-5.5 7 7 0 0 1 3.2-4.5 7 7 0 0 1 4-1.2zM344 342.5a7 7 0 0 1 4 1.1 7 7 0 0 1 3.3 4.5 7 7 0 0 1-.8 5.5 7 7 0 0 1-4.6 3.3 7 7 0 0 1-5.4-.9 7 7 0 0 1-3.3-4.5 7 7 0 0 1 .9-5.5 7 7 0 0 1 4.5-3.3 7.8 7.8 0 0 1 1.4-.2zm42 65.2 5.5 5.1-.6.7-1.7-1.5-17 18.5.2.3.2.3c3.2 3 7 2.1 11.3-2.6l1-1 .8.6-9.2 10-.8-.7 1.2-1.2-9-8.3.6-.7 2 1.7 15.4-16.8c.6-.6.9-1.2.8-1.6 0-.4-.2-.8-.6-1.3l-.8-.8zm187.6 1.3.6.7-1.8 1.5 11.5 26-.8.7-10.1-6.6 4.7 11-.8.6-22.5-14-1.5-.8a2 2 0 0 0-1.2.2c-.4.2-1 .5-1.6 1l-.6-.7 6.1-5 .6.8-2 1.6 20.4 13-3.9-9-9.9-6.4c-1.4-.8-2.7-.8-3.8.1l-.6-.7 4.9-4 .6.7-1.5 1.3 8.6 5.4-2.7-6.4a9.6 9.6 0 0 0-.7-1c-.3-.4-.7-.6-1.1-.6-.5 0-1 .2-1.8.7l-.7-.7 5.2-4.2.6.7-1.5 1.3 4.7 11.1 10 6.4-8.7-19a6 6 0 0 0-.5-.7c-.7-1-1.8-.8-3.2.3l-.6-.8 5.6-4.5zm-168 13.1.8.6-8.1 25.3a5 5 0 0 0-.4 2.1c.1.5.4.8.8 1.1l.3.2.4.2-.5.8-5.4-3.7.5-.8 1.6 1.1 5.2-16.4-2.7-1.9-9.9 9.2a5.7 5.7 0 0 1-.8.9c-.8 1.2-.5 2.3 1 3.3a1.8 1.8 0 0 0 .3.2l.4.2-.6.8-5.7-3.9.6-.8 1 .7zm-3 4.9-3.6 3 2.1 1.5zm143.5.7 4.2 7.9-.9.4-.4-.8a6 6 0 0 0-2.3-2.6 4 4 0 0 0-2.9-.3c-1.1.3-2.5 1-4.1 1.8l3 5.6 2.9-1.6-2-3.5 1-.5 4.7 8.7-1 .5a8 8 0 0 0-2.2-2.9c-.8-.5-1.8-.4-3 .2l8.5 15.7a6.6 6.6 0 0 1 .8-.4c.3 0 .5-.2.7-.3a7.9 7.9 0 0 0 3-2.6c.6-.9.8-1.7.6-2.6-.2-1-.5-1.8-1-2.8l-.7-1.3.9-.5 4.6 8.7-.9.4-.7-1.4-10.9 5.8-.4-.8 2-1.1-10.6-19.9c-.4-.6-.6-1-.9-1.2a1 1 0 0 0-.7-.4 2 2 0 0 0-.9.1 11.6 11.6 0 0 0-.5.2 21.3 21.3 0 0 0-.7.3l-.4-.9 11-6-.7-1.4zm-132 3 7.2 3.1-.4.9-2.4-1-1.9 24 6-7.5 1.1-11.8c.1-1.6-.5-2.7-1.9-3.3l.4-1 5.8 2.6-.3.9-1.9-.8-.7 10.2 4.4-5.4a9.4 9.4 0 0 0 .6-1.1c.2-.5.2-1 0-1.3a4 4 0 0 0-1.5-1.3l.3-.9 6.2 2.7-.4.9-1.9-.8-7.6 9.4-1 11.8 12.8-16.6.4-.8c.5-1-.1-2-1.8-2.7l.4-.8 6.7 2.8-.4.9-2.1-1-17.8 22.4-1-.4 1.2-12-7.5 9.2-1-.3 2-26.5v-1.7c-.1-.4-.4-.7-.7-1l-1.7-.9zm117.7 6 .4 1-2.5 1 8.6 21.2c.3.8.7 1.4 1 1.6.4.2.8.2 1.4 0 .2 0 .3-.2.4-.3a2.7 2.7 0 0 1 .5-.2l.4 1-6.8 2.6-.3-.9 2.1-.8-8.5-21.2c-.4-.9-.8-1.4-1.3-1.5-.5-.2-1.2 0-2 .3l-.4-.9zm-9.9 4.3.2 1-2.3.5.4 28-1 .2-13.8-21.7c-.8-1.7-2.2-2.2-4.1-1.7l-.3-1 8-2 .2 1-2.8.7 12.6 19.7-.5-20.4v-.4c-.2-.6-.6-1-1.2-1.2-.7-.2-1.3-.2-2 0l-.2-1 6.8-1.7zm-24.2 3.8.8 8.9h-1l-.1-.9a6 6 0 0 0-1.1-3.3 4 4 0 0 0-2.5-1.3 22 22 0 0 0-4.5 0l.6 6.3 3.2-.3-.3-4 1-.1 1 9.9h-1.1a8 8 0 0 0-1-3.5c-.5-.8-1.4-1.1-2.7-1l1.6 17.8h1l.6-.1c1.8-.2 3-.5 3.9-1.1.8-.7 1.4-1.4 1.5-2.2.2-1 .2-2 .1-3l-.1-1.5 1-.1 1 9.8h-1l-.2-1.6-12.3 1.2v-1l2.3-.2-2.1-22.4a6 6 0 0 0-.3-1.5 1 1 0 0 0-.5-.6c-.2-.2-.5-.2-.9-.2l-.5-.1h-.8v-1l12.5-1.2-.1-1.6 1-.1zm-40.7 1 4.9.4-.2 2.6c3.1-1.8 6-2.5 8.8-2.3 2.1.1 4 .9 5.5 2.2 1.5 1.2 2.7 2.8 3.5 4.8a12.8 12.8 0 0 1 1 5.8 11 11 0 0 1-1.7 5 9.8 9.8 0 0 1-4 3.8 13 13 0 0 1-6.4 1.5l3 1.7a20 20 0 0 0 1.3.8 92.4 92.4 0 0 0 1.5.8l1 .5c1 .5 2.1.8 3.4.9l1.8-.1.6.7c-1 .4-2.2.6-3.7.5-1.3-.1-2.8-.5-4.3-1a47.7 47.7 0 0 1-4.4-2.1l-4.8-2.8-3.5-2.2-.3 3.3c0 .8.1 1.4.5 1.7.4.3 1 .5 1.6.6h1.4v1l-8-.7.1-1 2 .2 1.7-22c0-1.2 0-2-.3-2.6-.3-.6-1-.9-2.1-1zm11.2 2.3c-1.1 0-2.1.2-3 .5-1.5.5-2.7 1-3.6 1.9l-1 13.9c2.7 2.6 5.3 4 7.9 4.2a8 8 0 0 0 5-1.1c1.4-1 2.6-2.1 3.5-3.6a9 9 0 0 0 1.5-4v-.8a9.5 9.5 0 0 0-4.5-9.5c-1.4-.8-3-1.3-4.8-1.4a11.9 11.9 0 0 0-1 0z"/>
  <path fill="#0e3c60" d="M309.6 544.4v74.9q0 8.3.6 12 .5 3.7 2.3 6.8 5.2 9 17 9 12.2 0 17.2-10.2 2.7-5.9 2.7-25v-54.3q0-6.1-.2-8-.2-1.8-1-2.8-1-1.3-2.7-1.8-1.7-.5-6-.6h-.4v-3.1h24.2v3h-9.5v68.8q0 12.3-.9 18.3-.8 6-3 9.7-6.5 10.7-21.6 10.7-15.3 0-22.7-9.4-4.8-6-4.8-18v-69.8q0-4.5-.7-6.7-.7-2.1-2.8-2.8-2-.7-6.6-.7h-.5v-3.1h29.3v3zM437.7 534.2V576h-3.3V562.8q-.2-20.7-16.3-20.7-4 0-7.2 1.8-3.2 1.7-5 4.9-1.7 3.1-1.7 7.2 0 4.6 2.2 8.5 2.2 3.8 7.4 7.8 5.3 4 14.6 9.1l8.3 4.5q11.3 6 17 13.8 5.6 7.9 5.6 17.4 0 9.9-5.8 18.2-5.9 8.2-16 13-10 4.8-22 4.8-12.3 0-22.1-4.6-9.8-4.7-15.4-13-5.4-8.3-5.4-18.7 0-6.3 2.4-11.8 2.4-5.7 6.6-10 4.3-4.3 9.9-6.6 5.6-2.5 11.8-2.5 6.1 0 11.2 2.5 5.3 2.5 8.3 6.8 3 4.1 3 9 0 3.6-1.6 6.4-1.6 2.7-4.4 4.3-2.8 1.6-6.4 1.6-4 0-7-1.3l.7-2.7q1.4.4 3.2.4 3.8 0 6.3-2.6 2.4-2.7 2.4-6.5 0-5.7-4.5-9.7-4.5-4.2-11.3-4.2-6.2 0-11.5 3.6-5.2 3.5-8.3 9.4-3 6-3 13 0 8.8 4.8 16.4 4.7 7.5 13 12 8.1 4.4 17.8 4.4 9.3 0 17.3-3.8 8-4 12.5-10.6 4.6-6.6 4.6-14.6 0-7.7-5-14.7-4.5-6.2-17.1-13.2l-9-5q-11-6.3-16.1-12.8-5.2-6.6-5.2-15 0-6 2.9-10.8 2.8-4.8 8-7.6 5.2-2.7 11.8-2.7 7 0 13.7 2.7v-6.4zM506.1 649.2h-35v-3h9.6v-91.6l-.1-2.8q0-4.4-2.2-5.9-2-1.5-7.7-1.5h-.6v-3.1h52.2v-6.5h2.8v36.7h-2.6v-2.4l-.2-5.3q0-7.4-3-11.8-2.7-4.4-8.3-6-2.4-1-10-1.5l-9.3-.3-2.1.2v27.1h14.8V555h2.9v39.5h-3v-1.8q-.2-7-1.5-11-1.3-3.9-4.3-5.5t-8.4-1.6h-.5v61.4q0 6.5 1.9 8.5 1.9 1.9 8 1.9h6.6zM626.9 645.6l.6.2 7.3 2.6 19.1 6.5q14.4 4.8 24.4 7.6 10 2.8 20.5 5 10.6 2.2 19.3 3.2 8.7 1 15.9 1 6.4 0 13-1h.9l.8 2.8q-13.7 4.3-29 4.3-10.6 0-24.5-2.8-13-2.8-28-8.5l-5.6-2-7.6-3-14.4-6q-16.4-6.6-17.8-7l-.4-.4q-11 4.3-24 4.3-27.5 0-44.6-18.4-5-5.4-8.5-11.7-3.5-6.2-5.4-13.2Q537 602 537 595q0-12.2 5.8-23.9 6-11.6 16.1-19.8 17.4-13.9 40.9-13.9 12.8 0 23.8 4.3 11.2 4.2 19.3 12 8.2 7.7 12.7 18 4.5 10.4 4.5 22.7 0 7.6-2.3 15-2.2 7.4-6.7 14.4-4.3 6.8-10.3 12.3-6 5.4-13.5 9.4zm-44.6-.4q.5-6.8 13.2-6.8 9.7 0 24.6 5l.5.1q9-4 16-11.1 6.8-7.1 10.4-16.4 3.7-9.2 3.7-19.6 0-10-3.7-19.6-3.6-9.6-10.3-17.3-15-17.4-38-17.4-10.9 0-20.5 3.8-9.4 3.8-16.6 10.9-7 7-11 16.2-3.8 9.4-3.8 20 0 17.4 9.9 32 9.8 14.5 25.6 20.2zm32.4.6-.6-.3q-5.6-2-9.6-2.8-4-.8-7.5-.8-8 0-9.3 4.7 5.3 1.3 12 1.3 7.1 0 14.6-2zM99.5 812.7h.7q10.5 0 15.4-1.1 5-1.1 8.6-4.4 3-2.8 4-8 1.3-5.4 1.3-16.4v-13.3h3.2v52.8h-3.2v-6.7H80.9v-2.9h9.8V721q-.2-4.8-.9-6.8t-2.8-2.8q-2-.8-6.4-.8H80v-2.9h32.2v3H99.5zM170.9 741.4l-14.3 52.4q-1.7 6.3-1.7 10.5 0 5.6 5 7.3 2.5.9 9.5 1.1v3h-29.1v-3h7L177 703h2.8l27.2 92.2 3 9.5q1.2 3 2.5 4.7 1.3 1.6 2.8 2.3 1.7.6 4.8 1v3h-27v-3h10.3L183 741.4zm1-3.4h10l-5.4-17.2zM268.1 765.6 256 727.8l-1-3.6q-1.4-4.3-2.5-6.7-1-2.5-2.4-4-1.3-1.4-3.1-2-1.8-.6-4.7-.9v-2.9h25.3v3h-8.2l13.2 41.3 7.3-22.7q2.4-7.6 2.4-10.8 0-7-9-7.9v-2.9h25.2v3h-7.8L274.7 759l13.6 42.6 24.1-73.3.7-2.3.8-2.7q1-3.2 1-5.5 0-3.9-2.4-5.5-2.4-1.5-8.4-1.8v-2.9h28.7v3h-9.7l-35 107H285l-14.5-45.1-14.8 45.2h-3.2l-29-88.8-1.4-3.8q-2.9-9-6-11.7-3.2-2.6-11-2.9v-2.9h31.7v3h-10.3l30.1 91.5zM393.2 789.4v12.9q0 4.7.7 6.8.8 2.1 2.8 2.9 2 .7 6.5.7h5v3h-33.6v-3h9.7V721q-.1-4.7-.8-6.7-.8-2-2.8-2.7-2-.8-6.4-.8h-.6v-3.1h19.5v11.5q5.8-5.6 15.1-9 9.4-3.4 18.2-3.4 9.6 0 18.3 3.5 8.7 3.5 15.2 9.6 6.6 6.2 10.2 14.5 3.7 8.2 3.7 17.3 0 10.8-4.8 20.3-4.7 9.5-13.3 15.5-6.3 4.4-14.1 6.9-7.8 2.4-15.5 2.4h-1.9l1.1.6q12.2 5.9 20.6 9.5 8.6 3.5 13.9 5 5.3 1.4 10 1.4 3.6 0 7.4-1.2l1.7 2.1q-5.6 3.4-13.1 3.4-12.4 0-28.6-6.3-16.2-6.3-43.6-21.8zm0-4.5 3.4-3q7.2 5.4 14.7 8.1 7.7 2.8 15 2.8 11.2 0 20-5 8.7-5.1 13.7-14 5-9 5-20.1 0-11.4-5.5-20.9-5.6-9.5-15.3-15-9.6-5.6-21-5.6-5.7 0-11.5 1.7-5.6 1.6-10.5 4.5-4.7 2.7-8 6.6zM504.8 812.7h5q8.3 0 12.6-.4 4.4-.5 6.9-1.5 2.5-1.1 5.1-3.4 2.3-2 3.5-4.4 1.2-2.5 1.6-6.4.5-4 .5-11.6v-2.2h3l-.1 39.5h-3v-6.7h-53.7v-2.9h9.8V721l-.2-2.8q0-4.3-2.2-5.8-2-1.6-7.7-1.6h-.6v-3.1h54.5v-6.5h2.8V738H540l-.1-1.5v-1l-.3-5.3q-.1-7.6-2.8-11.8-2.6-4.4-8.4-6-2.6-.8-7.2-1.2-4.5-.5-11.7-.6-2.7 0-4.7.2V738h17v-16.7h3v39.5h-3.2V759q0-7-1.5-11-1.3-4-4.4-5.5-3-1.6-9-1.6h-1.9zM629 710.6l-30.3 107.2h-3.3l-25.7-88.6q-2.2-8-3.8-11-1.6-3.3-3.8-5-3.7-2.6-9.9-2.6h-.6v-2.9h31.6v3h-9.9l25.5 89.5 20.2-70.7q2.7-9.6 2.7-12 0-2.6-1.2-4.1-1-1.5-3.3-2.1-2.3-.7-6.5-.7h-1.2v-2.9h28.8v3zM664.3 710.8v91.5q0 4.7.7 6.8.8 2.1 2.9 2.9 2 .7 6.5.7h.5v3h-29.1v-3h9.7V721q-.2-4.7-.9-6.7t-2.8-2.7q-2-.8-6.4-.8h-.6v-3.1H674v3zM705.2 812.7h5q8.3 0 12.7-.4 4.3-.5 6.8-1.5 2.6-1.1 5.2-3.4 2.3-2 3.4-4.4 1.2-2.5 1.6-6.4.5-4 .5-11.6v-2.2h3v39.5h-3v-6.7h-53.7v-2.9h9.7V721l-.2-2.8q0-4.3-2.2-5.8-2-1.6-7.6-1.6h-.7v-3.1h54.5v-6.5h2.8V738h-2.6v-1.5l-.2-1-.1-5.3q-.2-7.6-2.9-11.8-2.6-4.4-8.3-6-2.6-.8-7.2-1.2-4.6-.5-11.7-.6-2.8 0-4.8.2V738h17v-16.7h3v39.5H722V759q-.1-7-1.5-11t-4.5-5.5q-3-1.6-9-1.6h-1.9zM815.3 765.6 803 727.8l-1-3.6q-1.4-4.3-2.5-6.7-1-2.5-2.4-4-1.3-1.4-3.2-2-1.7-.6-4.6-.9v-2.9h25.3v3h-8.2l13.1 41.3 7.4-22.7q2.4-7.6 2.4-10.8 0-7-9-7.9v-2.9h25.2v3h-7.8L822 759l13.6 42.6 24.1-73.3.6-2.3 1-2.7q.9-3.2.9-5.5 0-3.9-2.4-5.5-2.4-1.5-8.5-1.8v-2.9H880v3h-9.7l-35 107h-3.2l-14.5-45.1-14.8 45.2h-3.2L770.5 729l-1.3-3.8q-2.9-9-6-11.7-3.2-2.6-11-2.9v-2.9h31.7v3h-10.3l30 91.5z"/>
</svg>
